<?xml version="1.0" encoding="iso-8859-1"?>
<!-- Generator: Adobe Illustrator 19.0.0, SVG Export Plug-In . SVG Version: 6.00 Build 0)  -->
<svg version="1.1" width="40px" height="40px" id="Layer_1" xmlns="http://www.w3.org/2000/svg" xmlns:xlink="http://www.w3.org/1999/xlink" x="0px" y="0px"
	 viewBox="0 0 512 512" style="enable-background:new 0 0 512 512;" xml:space="preserve">
<path style="fill:#FDC00F;" d="M265.351,179.417c41.223,0,77.014,33.418,77.014,74.642S306.575,328.7,265.351,328.7v152.795h43.645
	V430.12c0-28.201,34.097-42.325,54.038-22.384l36.328,36.328l58.368-58.368l-36.328-36.328
	c-19.941-19.941-5.819-54.038,22.384-54.038h51.376v-82.545h-51.376c-28.201,0-42.325-34.097-22.384-54.038l36.328-36.328
	l-58.368-58.368l-36.328,36.328c-19.941,19.941-54.038,5.819-54.038-22.384V26.622h-43.645V179.417z"/>
<g style="opacity:0.1;">
	<path d="M308.464,77.997V26.622h-43.645v152.795c15.983,0,31.137,5.04,43.717,13.594V79.916
		C308.5,79.281,308.464,78.646,308.464,77.997z"/>
	<path d="M264.819,328.699v152.795h43.645v-51.376c0-0.649,0.037-1.283,0.072-1.918V315.105
		C295.956,323.659,280.802,328.699,264.819,328.699z"/>
</g>
<path style="fill:#52D6C6;" d="M116.41,58.683C158.224,26.814,210.436,7.89,267.068,7.89v497.529
	c-137.389,0-248.764-111.376-248.764-248.764c0-67.456,26.85-128.642,70.444-173.453L116.41,58.683z"/>
<g>
	<path style="fill:#99F08A;" d="M143.222,284.121l7.203-88.838l57.845-12.006l26.191-81.636L208.269,14.9
		c-33.84,8.206-64.979,23.32-91.826,43.783L88.781,83.201c-41.707,42.87-68.069,100.731-70.276,164.728l97.106-25.034
		L143.222,284.121z"/>
	<path style="fill:#99F08A;" d="M203.248,386.166l-67.229-67.229l-46.82,62.427L75.54,415.363
		c38.026,45.846,92.191,77.822,153.787,87.206L248.869,463L203.248,386.166z"/>
	<polygon style="fill:#99F08A;" points="211.652,306.931 227.258,348.95 258.472,338.145 258.472,299.729 234.462,275.718 	"/>
</g>
<path style="opacity:0.1;enable-background:new    ;" d="M56.759,218.199c0-58.127,19.95-111.588,53.358-153.938L88.748,83.201
	c-43.595,44.811-70.444,105.997-70.444,173.453c0,137.389,111.376,248.764,248.764,248.764v-41.416
	C147.94,445.516,56.759,342.508,56.759,218.199z"/>
<path d="M308.18,488.115h-41.206c-4.216,0-7.633-3.418-7.633-7.633V327.931c0-4.216,3.418-7.633,7.633-7.633
	c36.883,0,66.889-30.006,66.889-66.889s-30.006-66.889-66.889-66.889c-4.216,0-7.633-3.418-7.633-7.633V26.336
	c0-4.216,3.418-7.633,7.633-7.633h41.206c4.216,0,7.633,3.418,7.633,7.633v51.293c0,11.81,7.644,19.184,14.798,22.146
	c7.151,2.962,17.771,3.154,26.123-5.197l36.27-36.27c2.981-2.981,7.814-2.981,10.794,0l58.274,58.275
	c2.981,2.981,2.981,7.814,0,10.794l-36.27,36.27c-8.351,8.351-8.159,18.97-5.196,26.123c2.964,7.153,10.338,14.799,22.148,14.799
	h51.293c4.216,0,7.633,3.418,7.633,7.633v82.412c0,4.216-3.418,7.633-7.633,7.633h-51.293c-11.809,0-19.183,7.644-22.147,14.798
	c-2.964,7.154-3.154,17.773,5.196,26.123l36.27,36.27c2.981,2.981,2.981,7.814,0,10.794l-58.274,58.274
	c-2.981,2.981-7.814,2.981-10.794,0l-36.27-36.27c-8.351-8.351-18.968-8.158-26.123-5.196c-7.153,2.963-14.797,10.337-14.797,22.146
	v51.293C315.813,484.698,312.396,488.115,308.18,488.115z M274.607,472.849h25.94v-43.66c0-16.172,9.281-30.063,24.222-36.251
	c14.943-6.189,31.326-2.929,42.76,8.505l30.873,30.872l47.48-47.48l-30.872-30.873c-11.435-11.435-14.694-27.819-8.505-42.76
	c6.189-14.941,20.079-24.222,36.251-24.222h43.66v-67.145h-43.66c-16.171,0-30.063-9.281-36.251-24.222
	c-6.189-14.941-2.929-31.326,8.505-42.76l30.872-30.872l-47.48-47.48l-30.873,30.872c-11.434,11.435-27.819,14.694-42.76,8.505
	c-14.941-6.189-24.222-20.079-24.222-36.251V33.969h-25.94v137.637c41.734,3.863,74.523,39.077,74.523,81.804
	s-32.787,77.94-74.522,81.804L274.607,472.849L274.607,472.849z"/>
<path d="M266.32,512c-68.38,0-132.667-26.629-181.019-74.98C36.948,388.668,10.32,324.381,10.32,256.001
	c0-67.054,25.745-130.446,72.494-178.498c2.94-3.023,7.772-3.088,10.794-0.149c3.022,2.939,3.088,7.772,0.149,10.793
	c-43.959,45.186-68.17,104.797-68.17,167.852c0,130.189,103.876,236.571,233.101,240.615V15.383
	c-50.372,1.548-97.994,18.421-138.157,49.033c-3.354,2.557-8.142,1.909-10.698-1.443c-2.556-3.353-1.909-8.142,1.443-10.698
	C156.144,18.076,209.758,0,266.32,0c4.216,0,7.633,3.418,7.633,7.633v496.734C273.953,508.583,270.536,512,266.32,512z"/>
<path d="M142.637,291.058c-2.96,0-5.706-1.726-6.955-4.495l-24.926-55.272L20.027,254.68c-4.08,1.05-8.244-1.405-9.297-5.487
	c-1.052-4.082,1.403-8.245,5.487-9.297l96.95-24.994c3.597-0.926,7.336,0.869,8.864,4.253l15.395,34.136l4.798-59.182
	c0.274-3.377,2.74-6.169,6.058-6.858l53.395-11.081l24.064-75.003l-25.462-84.323c-1.218-4.035,1.065-8.295,5.101-9.514
	c4.033-1.219,8.295,1.065,9.514,5.101l26.149,86.597c0.448,1.482,0.434,3.064-0.039,4.538l-26.149,81.505
	c-0.841,2.619-3.025,4.583-5.718,5.143l-52.157,10.825l-6.729,83c-0.281,3.471-2.876,6.311-6.306,6.904
	C143.505,291.021,143.068,291.058,142.637,291.058z"/>
<path d="M228.6,509.156c-1.135,0-2.288-0.254-3.374-0.791c-3.78-1.867-5.33-6.444-3.463-10.224l17.676-35.791l-42.942-72.325
	l-60.221-60.222l-40.862,54.484L82.151,417.3c-1.57,3.912-6.016,5.81-9.928,4.238c-3.912-1.571-5.809-6.017-4.238-9.928
	l13.637-33.944c0.248-0.618,0.577-1.201,0.976-1.734l46.746-62.328c1.328-1.77,3.359-2.877,5.565-3.034
	c2.209-0.157,4.374,0.652,5.939,2.217l67.122,67.122c0.45,0.45,0.842,0.954,1.166,1.5l45.547,76.711
	c1.319,2.222,1.425,4.961,0.281,7.277l-19.51,39.504C234.119,507.594,231.413,509.156,228.6,509.156z"/>
<path d="M226.542,355.784c-3.104,0-6.015-1.907-7.156-4.978l-15.582-41.951c-0.892-2.402-0.519-5.092,0.992-7.162l22.773-31.164
	c1.315-1.8,3.351-2.935,5.575-3.106c2.224-0.17,4.41,0.636,5.985,2.213l23.972,23.972c1.432,1.431,2.236,3.373,2.236,5.397v38.355
	c0,3.253-2.062,6.149-5.137,7.213l-31.164,10.787C228.213,355.647,227.37,355.784,226.542,355.784z M219.545,307.387l11.554,31.107
	l18.974-6.568v-29.758l-15.434-15.434L219.545,307.387z"/>
<g>
</g>
<g>
</g>
<g>
</g>
<g>
</g>
<g>
</g>
<g>
</g>
<g>
</g>
<g>
</g>
<g>
</g>
<g>
</g>
<g>
</g>
<g>
</g>
<g>
</g>
<g>
</g>
<g>
</g>
</svg>
